<?xml version="1.0" standalone="no"?>
<!DOCTYPE svg PUBLIC "-//W3C//DTD SVG 20010904//EN"
 "http://www.w3.org/TR/2001/REC-SVG-20010904/DTD/svg10.dtd">
<svg version="1.0" xmlns="http://www.w3.org/2000/svg"
 width="1608.000000pt" height="549.000000pt" viewBox="0 0 1608.000000 549.000000"
 preserveAspectRatio="xMidYMid meet">

<g transform="translate(0.000000,549.000000) scale(0.100000,-0.100000)"
fill="#000000" stroke="none">
<path d="M8000 4904 c-195 -35 -364 -64 -375 -64 -52 -1 -53 -12 -7 -142 24
-68 68 -191 97 -275 l54 -152 -82 -60 c-76 -56 -83 -59 -104 -45 -25 16 -91
18 -113 4 -12 -7 -43 18 -142 117 -75 75 -132 124 -140 121 -9 -4 -32 -112
-72 -330 l-59 -324 78 -271 79 -271 -27 -32 c-20 -23 -27 -43 -27 -74 0 -106
119 -152 192 -74 l28 30 299 -56 c165 -31 302 -56 304 -56 3 0 11 -16 17 -35
15 -45 57 -75 107 -75 45 0 77 20 98 60 20 39 19 69 -5 108 l-21 33 123 230
122 229 392 0 c216 0 399 3 408 6 9 3 16 12 16 19 0 7 -58 199 -130 426 -71
227 -130 417 -130 422 0 5 11 22 25 39 40 47 32 120 -19 160 -23 20 -87 24
-117 8 -17 -9 -49 16 -244 190 -158 140 -232 200 -248 199 -12 0 -182 -30
-377 -65z m344 -46 c-9 -35 -18 -75 -21 -90 -4 -20 -13 -28 -39 -32 -18 -4
-46 -17 -61 -30 l-28 -23 -233 60 c-127 33 -230 62 -228 64 4 5 577 110 608
112 15 1 15 -4 2 -61z m272 -139 c113 -100 203 -183 201 -186 -8 -7 -402 96
-405 106 -2 6 -15 27 -28 47 l-25 37 16 71 c23 96 26 106 31 106 3 0 97 -82
210 -181z m-433 -108 c6 -25 5 -38 -5 -47 -33 -33 -364 -261 -370 -255 -6 5
-168 453 -168 464 0 2 120 -25 267 -62 l267 -67 9 -33z m431 -79 l188 -48 13
-38 13 -37 -351 -387 c-192 -213 -354 -388 -359 -390 -4 -2 -8 1 -8 7 0 19
190 835 200 859 5 12 16 22 24 22 8 0 27 14 43 30 15 17 32 30 38 30 5 0 95
-22 199 -48z m-445 -74 c-77 -114 -262 -383 -269 -391 -7 -8 -70 155 -70 180
0 12 356 272 373 273 4 0 -11 -28 -34 -62z m-4 -374 c-106 -455 -103 -444
-115 -444 -7 0 -123 310 -132 353 -3 14 330 512 338 505 2 -3 -39 -188 -91
-414z m895 -124 l128 -405 -184 -3 c-101 -1 -267 -1 -367 0 l-184 3 211 395
c116 217 215 401 219 408 5 7 18 12 29 10 18 -3 38 -58 148 -408z m-1645 119
l0 -61 -147 -104 c-81 -57 -149 -104 -151 -104 -2 0 18 118 45 263 26 144 48
264 48 267 0 2 46 -41 103 -98 l103 -102 -1 -61z m1331 119 c-36 -68 -128
-240 -204 -383 l-139 -260 -116 -3 c-108 -2 -117 -1 -127 18 -9 17 -6 27 22
60 48 56 622 689 626 690 2 0 -26 -55 -62 -122z m-921 -82 c22 -63 34 -110 29
-118 -5 -7 -28 -42 -52 -76 l-45 -64 -73 73 c-59 59 -71 76 -63 90 5 10 9 35
9 57 0 37 4 41 72 90 40 29 76 52 79 52 4 0 24 -47 44 -104z m-293 -150 l58
-1 71 -72 72 -71 -204 -298 c-112 -163 -207 -301 -210 -307 -4 -6 -17 -6 -34
0 -27 9 -32 22 -101 259 -40 137 -73 254 -74 261 0 6 73 63 163 127 123 88
167 114 182 109 11 -4 46 -7 77 -7z m409 -174 c31 -86 55 -159 52 -162 -2 -2
-49 41 -103 95 l-100 100 41 63 c23 34 44 62 48 62 3 0 31 -71 62 -158z m12
-248 l-5 -51 -295 -157 c-162 -87 -296 -156 -298 -154 -2 2 89 140 203 306
l207 302 97 -97 96 -98 -5 -51z m417 -48 c0 -7 -222 -421 -231 -430 -5 -5 -11
-7 -14 -5 -2 3 -12 83 -20 177 l-15 172 43 44 42 44 98 1 c53 1 97 -1 97 -3z
m-362 -66 l39 -20 13 -177 c11 -151 11 -178 -1 -182 -8 -2 -25 -16 -39 -31
l-25 -26 -305 56 c-263 49 -305 59 -305 74 0 13 77 59 285 171 157 85 288 154
292 154 4 1 25 -8 46 -19z"/>
<path d="M2940 2250 l0 -212 -42 36 c-47 40 -85 50 -163 44 -99 -8 -175 -85
-218 -223 -19 -60 -22 -93 -22 -225 0 -174 11 -226 67 -320 26 -43 44 -61 87
-82 96 -49 190 -31 263 50 l37 41 7 -49 7 -50 83 0 84 0 0 589 0 589 -27 6
c-16 3 -58 8 -95 12 l-68 6 0 -212z m-39 -309 l39 -39 0 -208 c0 -206 0 -208
-25 -245 -79 -112 -185 -79 -215 68 -18 84 -8 326 14 381 24 56 58 82 109 82
32 0 46 -7 78 -39z"/>
<path d="M5420 2453 c-19 -2 -50 -6 -67 -9 l-33 -5 0 -589 0 -590 95 0 95 0 0
600 0 600 -27 -2 c-16 0 -44 -3 -63 -5z"/>
<path d="M8690 2453 c-19 -2 -50 -6 -68 -9 l-33 -5 3 -542 3 -542 23 -37 c41
-66 145 -96 233 -67 19 7 35 13 37 14 1 1 -5 30 -14 64 -16 55 -20 61 -44 61
-14 0 -31 5 -38 12 -9 9 -12 142 -12 535 l0 523 -27 -2 c-16 0 -44 -3 -63 -5z"/>
<path d="M10150 2250 l0 -212 -39 35 c-45 40 -86 52 -167 45 -92 -8 -172 -90
-215 -219 -21 -65 -24 -92 -24 -224 0 -170 18 -251 75 -337 84 -127 261 -129
357 -5 l22 29 7 -51 7 -51 83 0 84 0 0 589 0 589 -27 6 c-16 3 -58 8 -95 12
l-68 6 0 -212z m-39 -309 l39 -39 0 -209 c0 -206 0 -209 -25 -246 -26 -37 -70
-67 -100 -67 -36 0 -77 33 -98 78 -20 42 -22 64 -22 217 0 141 3 178 18 217
24 61 58 88 110 88 32 0 46 -7 78 -39z"/>
<path d="M15180 2454 c-8 -1 -41 -6 -72 -9 l-58 -6 0 -590 0 -589 95 0 95 0 0
297 0 298 32 46 c51 76 108 99 148 59 19 -19 20 -33 20 -360 l0 -340 100 0
100 0 0 308 c0 169 -5 336 -11 372 -19 119 -80 180 -181 180 -75 0 -104 -12
-160 -68 l-48 -46 0 227 0 227 -22 -1 c-13 -1 -30 -3 -38 -5z"/>
<path d="M4410 2365 c-201 -64 -313 -295 -297 -611 11 -202 53 -331 137 -415
114 -114 327 -130 511 -37 l79 39 0 270 0 269 -166 0 -166 0 7 -67 c4 -38 9
-71 12 -75 2 -5 31 -8 64 -8 l59 0 0 -150 0 -151 -42 -19 c-24 -11 -62 -20
-85 -20 -92 0 -144 42 -176 145 -20 62 -22 92 -22 265 0 215 12 279 63 352 73
102 206 111 327 23 20 -14 24 -12 70 36 l50 50 -35 29 c-19 16 -60 41 -90 56
-47 24 -69 28 -155 31 -67 2 -115 -2 -145 -12z"/>
<path d="M3320 1810 l0 -550 100 0 100 0 0 550 0 550 -100 0 -100 0 0 -550z"/>
<path d="M3683 2105 l-150 -255 154 -295 155 -295 110 0 110 0 -35 63 c-67
121 -266 492 -277 519 -12 24 -3 41 130 265 79 131 145 241 147 246 2 4 -40 7
-95 7 l-99 0 -150 -255z"/>
<path d="M11050 2185 c-71 -36 -145 -54 -267 -64 -93 -7 -120 -13 -164 -37
-95 -52 -146 -157 -137 -283 6 -78 32 -135 83 -179 l35 -32 -34 -45 c-74 -96
-56 -193 44 -246 14 -7 78 -16 144 -20 94 -5 124 -11 145 -26 59 -45 48 -151
-19 -185 -47 -24 -162 -24 -210 0 -28 14 -37 25 -44 60 l-10 42 -83 0 -83 0 0
-28 c0 -92 68 -179 161 -206 61 -19 223 -21 297 -5 76 16 151 66 187 123 26
43 30 59 30 120 0 59 -5 79 -27 116 -52 88 -101 111 -267 119 -105 6 -125 9
-137 26 -18 24 -18 65 0 91 12 17 22 20 58 15 95 -14 188 13 248 72 53 52 75
110 75 202 0 69 -4 86 -27 127 -15 25 -45 57 -65 70 l-38 23 45 2 c69 4 124
13 138 22 11 7 9 22 -8 80 -12 39 -23 71 -23 71 -1 -1 -22 -12 -47 -25z m-203
-206 c31 -26 45 -71 45 -148 0 -126 -29 -171 -109 -171 -76 0 -113 55 -113
170 0 87 20 137 64 156 34 16 90 12 113 -7z"/>
<path d="M12833 2193 c-47 -32 -159 -62 -253 -68 -141 -10 -193 -27 -249 -83
-59 -59 -81 -119 -81 -222 0 -90 31 -164 86 -206 l34 -26 -31 -35 c-37 -43
-49 -72 -49 -124 0 -53 22 -92 66 -119 29 -19 58 -24 153 -30 120 -8 173 -24
185 -55 3 -9 6 -36 6 -59 0 -85 -59 -121 -185 -114 -84 4 -109 19 -127 80
l-11 38 -83 0 -83 0 6 -38 c2 -20 17 -62 31 -92 24 -48 34 -59 87 -85 53 -27
72 -30 169 -34 164 -5 256 20 323 91 43 45 65 101 65 168 0 68 -14 105 -55
148 -58 61 -98 75 -234 82 -136 6 -157 15 -155 69 1 46 19 73 44 65 11 -3 50
-6 85 -5 162 2 266 111 266 277 -1 86 -23 136 -85 188 l-43 36 55 0 c51 0 126
13 136 22 4 5 -35 130 -45 140 -3 3 -16 -1 -28 -9z m-233 -206 c40 -20 60 -72
60 -155 0 -117 -35 -172 -110 -172 -75 0 -114 57 -114 170 -1 58 4 83 20 110
32 56 89 75 144 47z"/>
<path d="M950 2099 c-19 -11 -51 -39 -71 -61 l-36 -41 -7 51 -7 52 -84 0 -85
0 0 -420 0 -420 95 0 95 0 0 303 c0 332 -3 314 63 385 30 31 67 41 94 24 29
-18 33 -70 33 -388 l0 -324 95 0 95 0 0 308 0 309 30 41 c33 46 57 62 94 62
54 0 56 -14 56 -382 l0 -338 95 0 96 0 -3 363 -3 362 -25 45 c-35 63 -80 90
-147 90 -70 0 -113 -21 -167 -81 l-44 -49 -24 42 c-34 61 -78 88 -147 88 -39
0 -67 -7 -91 -21z"/>
<path d="M1965 2107 c-145 -56 -215 -197 -215 -432 0 -207 60 -338 184 -403
45 -23 63 -26 151 -27 93 0 105 2 166 32 36 18 74 41 83 52 18 20 17 21 -15
63 -18 24 -36 47 -40 52 -4 5 -20 -1 -35 -13 -38 -30 -128 -54 -170 -47 -42 8
-93 50 -109 91 -7 16 -16 56 -20 87 l-7 58 218 2 219 3 -1 105 c0 155 -27 235
-102 309 -37 37 -71 61 -98 69 -52 15 -169 14 -209 -1z m173 -142 c34 -28 52
-86 52 -164 l0 -51 -126 0 -127 0 7 61 c14 121 55 179 127 179 25 0 47 -8 67
-25z"/>
<path d="M6345 2107 c-16 -8 -49 -35 -73 -61 -23 -25 -45 -46 -47 -46 -3 0 -5
12 -5 28 0 68 -5 72 -91 72 l-79 0 0 -420 0 -420 95 0 95 0 0 303 0 304 29 40
c54 74 109 94 147 52 18 -20 19 -43 22 -360 l3 -339 95 0 95 0 -3 358 c-3 347
-4 358 -25 403 -35 69 -74 93 -158 96 -44 2 -81 -2 -100 -10z"/>
<path d="M7010 2111 c-108 -33 -183 -126 -216 -268 -24 -103 -15 -295 18 -385
32 -85 81 -145 149 -183 49 -27 62 -30 149 -30 84 0 101 3 146 27 125 66 186
201 187 408 0 177 -32 279 -113 361 -58 58 -118 79 -219 78 -42 0 -87 -4 -101
-8z m175 -164 c47 -47 58 -99 59 -262 0 -199 -26 -273 -103 -296 -56 -17 -103
8 -133 69 -21 44 -23 60 -23 227 0 167 2 183 22 222 29 53 58 73 106 73 31 0
46 -7 72 -33z"/>
<path d="M9172 2107 c-43 -14 -116 -79 -147 -131 -39 -67 -65 -185 -65 -295 1
-217 60 -345 188 -408 50 -25 68 -28 152 -28 87 0 101 3 161 32 36 18 73 41
83 52 17 18 16 21 -19 70 -37 52 -49 59 -60 41 -11 -17 -78 -47 -122 -55 -89
-14 -152 32 -177 130 -9 32 -16 70 -16 82 l0 23 221 0 222 0 -6 118 c-3 82
-11 135 -26 176 -34 97 -94 164 -170 191 -50 17 -169 19 -219 2z m182 -143
c29 -29 41 -69 49 -156 l6 -58 -131 0 -131 0 7 53 c18 136 53 187 129 187 35
0 50 -6 71 -26z"/>
<path d="M11395 2096 c-126 -58 -189 -199 -189 -421 0 -169 31 -269 111 -349
50 -51 113 -78 193 -84 92 -6 168 12 240 59 l61 39 -37 53 c-21 28 -38 53 -39
54 -1 2 -28 -11 -60 -29 -73 -39 -158 -45 -201 -12 -39 29 -65 85 -71 154 l-6
60 216 0 215 0 5 43 c7 66 -11 210 -33 269 -27 72 -78 130 -142 162 -72 36
-189 37 -263 2z m205 -134 c29 -30 50 -101 50 -172 l0 -40 -125 0 -125 0 0 43
c0 63 27 146 57 173 38 35 105 34 143 -4z"/>
<path d="M13305 2108 c-38 -20 -67 -53 -93 -103 -26 -49 -27 -49 -29 -20 -2
17 -6 49 -9 73 l-5 42 -80 0 -79 0 0 -420 0 -420 95 0 94 0 3 263 c3 260 3
262 30 319 34 73 75 101 134 94 l41 -5 15 89 c8 50 12 92 10 95 -10 9 -107 4
-127 -7z"/>
<path d="M13675 2113 c-11 -2 -48 -13 -82 -24 l-62 -20 21 -57 c12 -31 23 -59
25 -61 1 -2 30 4 64 13 80 23 161 24 194 2 34 -22 45 -54 45 -130 l0 -64 -97
-4 c-153 -7 -249 -62 -284 -164 -18 -52 -16 -180 3 -224 66 -154 252 -189 371
-70 47 47 48 48 57 26 12 -32 64 -73 107 -85 20 -6 38 -9 39 -8 0 1 10 30 22
64 16 50 18 64 8 70 -32 19 -36 53 -36 282 0 256 -8 311 -51 371 -47 65 -112
90 -229 89 -52 -1 -104 -3 -115 -6z m205 -552 c0 -102 -9 -128 -60 -168 -23
-19 -94 -16 -113 5 -20 22 -39 105 -31 140 20 91 56 122 147 122 l57 0 0 -99z"/>
<path d="M14553 2105 c-17 -7 -49 -32 -71 -54 -21 -22 -42 -38 -46 -34 -3 3
-6 24 -6 45 l0 38 -85 0 -85 0 0 -591 0 -592 73 7 c130 13 117 -11 117 214 l0
196 33 -32 c111 -107 276 -71 352 79 42 82 58 164 58 304 1 140 -12 221 -48
300 -25 55 -75 108 -118 124 -39 15 -136 13 -174 -4z m92 -149 c39 -39 49 -97
49 -266 0 -169 -9 -221 -50 -269 -32 -39 -73 -47 -119 -25 -71 33 -75 47 -75
274 0 187 2 205 21 236 46 74 126 98 174 50z"/>
<path d="M5640 1915 c-60 -102 -110 -190 -110 -195 0 -6 51 -111 112 -235
l113 -225 101 0 101 0 -118 230 c-66 127 -119 236 -119 241 0 6 47 90 105 186
58 96 105 176 105 179 0 2 -40 4 -90 4 l-89 0 -111 -185z"/>
<path d="M7530 2093 c0 -5 32 -194 72 -420 l72 -413 116 0 117 0 42 313 c23
171 46 321 50 331 5 12 24 -98 50 -285 23 -167 44 -317 47 -332 l6 -28 116 3
116 3 66 385 c37 212 69 400 73 418 l7 32 -90 0 c-65 0 -90 -3 -90 -12 -1 -32
-87 -668 -91 -672 -3 -3 -27 149 -54 337 l-50 342 -97 3 c-85 2 -97 1 -101
-15 -3 -10 -27 -163 -54 -340 -26 -178 -50 -323 -53 -323 -3 0 -23 141 -44
313 -21 171 -40 324 -43 340 l-5 27 -89 0 c-49 0 -89 -3 -89 -7z"/>
</g>
</svg>
